<svg xmlns="http://www.w3.org/2000/svg" width="41.797" height="40.005" viewBox="0 0 41.797 40.005">
  <path id="star-empty" d="M41.258-21.6,29.844-23.266l-5.1-10.344a2.5,2.5,0,0,0-4.484,0l-5.1,10.344L3.742-21.6a2.5,2.5,0,0,0-1.383,4.266l8.258,8.047L8.664,2.078a2.5,2.5,0,0,0,3.625,2.633L22.5-.656,32.711,4.711a2.5,2.5,0,0,0,3.625-2.633L34.383-9.289l8.258-8.047A2.5,2.5,0,0,0,41.258-21.6Zm-10.9,11L32.211.211,22.5-4.891,12.789.211,14.641-10.6,6.781-18.258l10.859-1.578L22.5-29.68l4.859,9.844,10.859,1.578Z" transform="translate(-1.602 35.001)" fill="#fff"/>
</svg>
