<svg xmlns="http://www.w3.org/2000/svg" width="375.6" height="48.9" viewBox="0 0 375.6 48.9">
  <g id="Group_4" data-name="Group 4" transform="translate(-37.48 -13.88)">
    <path id="Path_2" data-name="Path 2" d="M14.64.72C26.46.72,32.22-3.9,32.22-11.46c0-13.56-18.24-10.68-18.24-19.26,0-3.42,2.88-6.72,8.76-6.72,6.78,0,9.06,4.44,10.5,12.18l.24-.06,2.28-12.3c-4.5,1.02-7.8-.18-13.2-.18-10.68,0-16.38,4.74-16.38,11.88,0,12.6,17.76,9.36,17.76,18.66,0,3.48-2.46,7.62-9.42,7.62C6.84.36,4.2-4.62,2.88-12.3l-.3.06L.48-.84A76.249,76.249,0,0,0,14.64.72ZM48.48.66A19.774,19.774,0,0,0,62.22-5.28l-.24-.24c-2.16,2.04-5.58,4.5-9.24,4.5-3.9,0-6-2.88-6-8.22,0-5.82,2.46-15.96,8.52-15.96a3.484,3.484,0,0,1,3.54,2.94,4.79,4.79,0,0,0-3.9,4.8,4.553,4.553,0,0,0,4.68,4.74c3.06,0,4.8-2.46,4.8-5.16,0-3.78-3.54-7.74-10.26-7.74-8.82,0-17.1,6.72-17.1,15.48C37.02-4.44,40.5.66,48.48.66ZM67.26,0H76.8l3.6-15.36c1.14-2.88,2.7-5.28,4.38-6.18a5.284,5.284,0,0,0-.12,1.02,4.9,4.9,0,0,0,4.86,4.98,4.919,4.919,0,0,0,4.86-5.04,4.892,4.892,0,0,0-4.92-5.04c-4.38,0-7.56,5.1-9.24,9.66l.72-3.18c.9-3.84-.12-6.48-4.08-6.48a19.569,19.569,0,0,0-9.12,2.94l-.06.36a8.3,8.3,0,0,1,3.06-1.02c1.08,0,1.62.78,1.26,2.4Zm34.92.66c3.96,0,7.8-2.16,10.86-4.74-.18,2.88,1.2,4.8,4.62,4.8a19.568,19.568,0,0,0,9.18-2.94l.06-.36a8.3,8.3,0,0,1-3.06,1.02c-1.08,0-1.62-.78-1.26-2.4l4.74-21h-9.54L113.1-4.56a8.674,8.674,0,0,1-5.04,2.22c-1.86,0-2.94-1.2-2.28-4.14l2.94-12.6c.9-3.84-.24-6.54-4.32-6.54a19.568,19.568,0,0,0-9.18,2.94l-.06.36a8.3,8.3,0,0,1,3.06-1.02c1.08,0,1.62.78,1.26,2.4L96.54-7.56C95.22-1.68,98.1.66,102.18.66ZM131.34,0h9.3l4.26-18.9c1.86-1.74,3.72-3.42,5.64-3.42,1.5,0,2.04,1.08,1.62,2.88L147.6,0h9.42l4.14-18.72c1.92-1.8,3.78-3.6,5.76-3.6,1.5,0,2.04,1.08,1.62,2.88L165.42-5.88c-.9,3.84,0,6.54,4.08,6.54a19.168,19.168,0,0,0,9.06-2.94l.06-.36a8.3,8.3,0,0,1-3.06,1.02c-1.08,0-1.62-.78-1.26-2.4l3-13.38c1.32-5.94-1.56-8.22-5.16-8.22-4.14,0-7.74,3.18-10.92,6.3.3-4.5-2.28-6.3-5.46-6.3-4.08,0-7.56,3-10.68,6.06.66-3.6-.3-6.06-4.2-6.06a19.168,19.168,0,0,0-9.06,2.94l-.06.36a8.3,8.3,0,0,1,3.06-1.02c1.08,0,1.62.78,1.26,2.4Zm45.3,9.78h17.34l.06-.36c-3.12,0-3.78-1.74-3.06-4.74l1.26-5.34A10.381,10.381,0,0,0,197.88.66a16.194,16.194,0,0,0,16.26-16.32c0-5.34-2.7-9.96-8.52-9.96a13.005,13.005,0,0,0-8.76,3.78c-.18-2.28-1.56-3.78-4.56-3.78a19.568,19.568,0,0,0-9.18,2.94l-.06.36a8.3,8.3,0,0,1,3.06-1.02c1.08,0,1.62.78,1.26,2.4L181.56,4.2c-.72,3-1.62,5.22-4.86,5.22ZM200.76-23.1c2.46,0,3.6,2.58,3.6,5.82,0,5.22-3,17.4-8.46,17.4-2.28,0-3.42-1.68-2.76-4.5l3.96-17.04A5.935,5.935,0,0,1,200.76-23.1ZM225.06.66c5.1,0,9.06-3.18,11.82-5.76l-.24-.24c-1.8,1.62-4.02,3.36-6.48,3.36-1.86,0-2.7-1.02-1.98-4.08l4.14-18.06h7.38l.18-.84h-7.32l1.92-8.34-9.96,1.86-1.5,6.48h-3.66l-.18.84h3.66L219.06-7.68C217.74-2.04,220.38.66,225.06.66Zm19.92.06a19.568,19.568,0,0,0,9.18-2.94l.06-.36a8.3,8.3,0,0,1-3.06,1.02c-1.08,0-1.62-.78-1.26-2.4l3.42-15.12c.9-3.84-.24-6.54-4.32-6.54a19.568,19.568,0,0,0-9.18,2.94l-.06.36a8.3,8.3,0,0,1,3.06-1.02c1.08,0,1.62.78,1.26,2.4L240.66-5.82C239.76-1.98,240.9.72,244.98.72Zm6.72-29.34a5.27,5.27,0,0,0,5.52-5.28,5.258,5.258,0,0,0-5.52-5.22,5.258,5.258,0,0,0-5.52,5.22A5.27,5.27,0,0,0,251.7-28.62ZM271.02.66c9.6,0,17.94-6.84,17.94-15.48,0-7.74-6.66-10.8-13.02-10.8-9.54,0-17.88,6.9-17.88,15.42C258.06-2.94,264.06.66,271.02.66Zm-.54-.42c-1.68,0-3.42-.9-3.42-5.1,0-5.34,2.82-20.34,9.54-20.34,1.68,0,3.42.9,3.42,5.1C280.02-14.82,277.26.24,270.48.24Zm29.16.42c3.96,0,7.8-2.16,10.86-4.74-.18,2.88,1.2,4.8,4.62,4.8a19.568,19.568,0,0,0,9.18-2.94l.06-.36a8.3,8.3,0,0,1-3.06,1.02c-1.08,0-1.62-.78-1.26-2.4l4.74-21h-9.54l-4.68,20.4a8.674,8.674,0,0,1-5.04,2.22c-1.86,0-2.94-1.2-2.28-4.14l2.94-12.6c.9-3.84-.24-6.54-4.32-6.54a19.568,19.568,0,0,0-9.18,2.94l-.06.36a8.3,8.3,0,0,1,3.06-1.02c1.08,0,1.62.78,1.26,2.4L294-7.56C292.68-1.68,295.56.66,299.64.66Zm37.86,0c6.96,0,13.2-3.78,13.2-9.66,0-8.52-13.2-6.36-13.2-11.94,0-2.64,2.94-4.32,5.88-4.32a4.348,4.348,0,0,1,4.32,2.58,3.486,3.486,0,0,0-2.16,3.3,3.7,3.7,0,0,0,3.66,3.78,3.923,3.923,0,0,0,3.72-4.02c0-3.24-4.08-6-10.02-6-6.96,0-12.36,3.78-12.36,9.3,0,8.58,13.02,6.42,13.02,12.12,0,2.64-2.88,4.5-6.24,4.5-2.7,0-3.96-1.14-4.62-2.52a3.678,3.678,0,0,0,2.16-3.48,3.628,3.628,0,0,0-3.66-3.78,3.939,3.939,0,0,0-3.84,4.02C327.36-2.22,331.44.66,337.5.66Z" transform="translate(37 53)" fill="#ffff29"/>
    <path id="Path_3" data-name="Path 3" d="M1.2-8.4H2.568L5.64-2.5,8.688-8.4h1.38V0H8.988L8.976-6.708,5.988-.888H5.28L2.268-6.708V0H1.2Zm10.512,0h1.344l2.208,3.132L17.484-8.4H18.84L16-4.368,19.08,0H17.7L15.264-3.4,12.852,0H11.5l3.072-4.32Z" transform="translate(394 27)" fill="#ffff29"/>
  </g>
</svg>
