<svg xmlns="http://www.w3.org/2000/svg" width="19.125" height="18" viewBox="0 0 19.125 18">
  <path id="Path_6" data-name="Path 6" d="M.562-10.213A29.689,29.689,0,0,0,.014-14.14a2.081,2.081,0,0,0-2.173-1.61,2.515,2.515,0,0,0-1.171.274A2.527,2.527,0,0,0-4.5-15.75a2.527,2.527,0,0,0-1.171.274,2.5,2.5,0,0,0-1.171-.274,2.08,2.08,0,0,0-2.173,1.61,29.516,29.516,0,0,0-.548,3.927,4.543,4.543,0,0,0,2.454,4.1L-7.467.243A1.906,1.906,0,0,0-5.555,2.25h2.109A1.906,1.906,0,0,0-1.533.243l-.359-6.356A4.539,4.539,0,0,0,.562-10.213ZM-3.646-7.274-3.217.337a.221.221,0,0,1-.229.225H-5.555A.221.221,0,0,1-5.783.337l.429-7.611a2.93,2.93,0,0,1-2.521-2.939,30.828,30.828,0,0,1,.52-3.611c.056-.323.995-.316,1.037.007v4c.032.373.991.38,1.037.007l.26-4.011c.056-.316.981-.316,1.037,0l.26,4.011c.046.373,1.005.366,1.037-.007v-4c.042-.323.981-.33,1.037-.007a30.826,30.826,0,0,1,.52,3.611A2.926,2.926,0,0,1-3.646-7.274ZM4.131-4.83,3.663.179A1.927,1.927,0,0,0,5.625,2.25H7.594A1.936,1.936,0,0,0,9.562.352v-14.2a1.936,1.936,0,0,0-1.969-1.9c-2.524,0-5.906,2.918-5.906,6.388A5.76,5.76,0,0,0,4.131-4.83ZM3.375-9.362c0-2.552,2.651-4.7,4.219-4.7.151,0,.281.1.281.211V.352c0,.116-.13.211-.281.211H5.625c-.162,0-.292-.105-.281-.225L5.9-5.621C4.507-6.571,3.375-7.7,3.375-9.362Z" transform="translate(9.563 15.75)" fill="#0094d7"/>
</svg>
