<svg xmlns="http://www.w3.org/2000/svg" width="23.25" height="23.25" viewBox="0 0 23.25 23.25">
  <path id="Path_5" data-name="Path 5" d="M12-20.625A11.623,11.623,0,0,0,.375-9,11.623,11.623,0,0,0,12,2.625,11.623,11.623,0,0,0,23.625-9,11.623,11.623,0,0,0,12-20.625Zm0,21A9.372,9.372,0,0,1,2.625-9,9.372,9.372,0,0,1,12-18.375,9.372,9.372,0,0,1,21.375-9,9.372,9.372,0,0,1,12,.375Zm2.9-4.894a.566.566,0,0,0,.787-.122l.881-1.214a.562.562,0,0,0-.122-.787L13.312-8.92v-6.642a.564.564,0,0,0-.562-.562h-1.5a.564.564,0,0,0-.562.562v7.7a.566.566,0,0,0,.23.455Z" transform="translate(-0.375 20.625)" fill="#211920"/>
</svg>
